#!OML:ASF F:\VICON\USERDATA\INSTALL\rory3\rory3.ASF
:FULLY-SPECIFIED
:DEGREES
978
root 2.86246 20.095 0.0305662 12.8826 -5.78358 -8.25742
lowerback 4.30024 -1.01103 3.55832
upperback -3.62318 -0.961862 2.56988
thorax -6.2052 -0.571428 0.77677
lowerneck -12.6606 0.529292 -1.92385
upperneck 35.3617 1.12849 0.26628
head 14.1906 0.215485 0.611265
rclavicle -9.54166e-015 -3.18055e-015
rhumerus -48.9408 4.9807 -78.5689
rradius 72.6718
rwrist 5.62568
rhand -25.0465 -50.3609
rfingers 7.12502
rthumb 1.46661 -800.336
lclavicle -9.54166e-015 -3.18055e-015
lhumerus -40.9745 -29.1967 78.0791
lradius 47.7685
lwrist -2.8129
lhand -26.1621 -35.8386
lfingers 7.12502
lthumb 0.389225 -5.85916
rfemur -102.029 -9.18681 27.9238
rtibia 143.391
rfoot 28.098 13.348
rtoes -4.08246
lfemur -15.851 -4.21586 -15.4278
ltibia 12.8975
lfoot 15.273 0.343239
ltoes -9.113
979
root 2.87172 20.0967 0.0268356 12.5106 -6.2014 -8.15951
lowerback 4.44696 -0.955338 3.5213
upperback -3.44909 -0.895042 2.44868
thorax -6.10525 -0.537317 0.663744
lowerneck -12.6454 0.489047 -2.06371
upperneck 35.2497 1.03956 0.448595
head 14.1345 0.183653 0.695174
rclavicle 1.22253e-014 -1.23246e-014
rhumerus -48.6892 5.1502 -78.8434
rradius 71.9392
rwrist 5.34339
rhand -24.8365 -50.9236
rfingers 7.12502
rthumb 1.66951 -800.897
lclavicle 1.22253e-014 -1.23246e-014
lhumerus -40.9856 -28.7724 78.2148
lradius 47.1505
lwrist -3.1734
lhand -26.0498 -35.4108
lfingers 7.12502
lthumb 0.497605 -5.43168
rfemur -101.968 -8.50099 27.8481
rtibia 143.385
rfoot 28.9578 13.3786
rtoes -3.44227
lfemur -15.2562 -4.06207 -15.7551
ltibia 12.7638
lfoot 14.9209 0.13667
ltoes -9.08505
980
root 2.87753 20.084 0.0219341 12.1582 -6.66763 -8.23209
lowerback 4.73257 -0.888627 3.55477
upperback -3.35043 -0.79379 2.40174
thorax -6.16476 -0.48941 0.58969
lowerneck -12.7063 0.508687 -2.12206
upperneck 35.222 1.03754 0.580648
head 14.1338 0.192145 0.758642
rclavicle -1.86858e-014 1.74931e-014
rhumerus -48.3735 5.34037 -79.0848
rradius 70.9584
rwrist 5.21829
rhand -25.2654 -49.351
rfingers 7.12502
rthumb 1.25522 -799.327
lclavicle -1.86858e-014 1.74931e-014
lhumerus -41.1217 -28.2075 78.3841
lradius 46.6256
lwrist -3.29794
lhand -25.4599 -35.0424
lfingers 7.12502
lthumb 1.06736 -5.06528
rfemur -101.792 -7.31096 27.9686
rtibia 143.239
rfoot 29.9119 13.4003
rtoes -4.91946
lfemur -14.6814 -3.77562 -15.914
ltibia 12.7296
lfoot 14.7526 0.225719
ltoes -9.64125
981
root 2.87963 20.0536 0.0243106 11.866 -7.33692 -8.34903
lowerback 4.83036 -0.73944 3.5423
upperback -3.26283 -0.594137 2.38119
thorax -6.12477 -0.389669 0.554963
lowerneck -12.7913 0.573856 -2.21665
upperneck 35.2787 1.08028 0.810078
head 14.1748 0.22736 0.875947
rclavicle 2.45002e-014 -2.34566e-014
rhumerus -48.1461 5.52027 -79.2477
rradius 70.0652
rwrist 5.04462
rhand -25.3689 -47.534
rfingers 7.12502
rthumb 1.15523 -797.511
lclavicle 2.45002e-014 -2.34566e-014
lhumerus -41.369 -27.5243 78.5663
lradius 46.1417
lwrist -3.43313
lhand -24.6054 -34.4449
lfingers 7.12502
lthumb 1.89268 -4.47359
rfemur -101.553 -5.7352 28.021
rtibia 143.062
rfoot 31.1885 13.3359
rtoes -4.67151
lfemur -14.2712 -3.40334 -16.0141
ltibia 12.881
lfoot 14.884 0.688467
ltoes -9.84263
982
root 2.89834 20.0064 0.0334998 11.4945 -7.8691 -8.0171
lowerback 4.80592 -0.64408 3.41989
upperback -3.14964 -0.491482 2.19015
thorax -5.98883 -0.335893 0.411445
lowerneck -12.7753 0.622358 -2.3372
upperneck 35.2933 1.12226 0.985826
head 14.1741 0.252364 0.974971
rclavicle 4.67144e-015 -1.98785e-015
rhumerus -48.0157 5.61893 -79.3522
rradius 69.3236
rwrist 5.04259
rhand -24.8647 -47.5994
rfingers 7.12502
rthumb 1.64224 -797.573
lclavicle 4.67144e-015 -1.98785e-015
lhumerus -41.6474 -26.8001 78.6959
lradius 45.6962
lwrist -3.79159
lhand -24.2695 -34.3819
lfingers 7.12502
lthumb 2.2171 -4.41365
rfemur -101.148 -5.30291 27.3913
rtibia 143.053
rfoot 30.806 14.0435
rtoes -6.41314
lfemur -13.8479 -3.20698 -16.6625
ltibia 13.1251
lfoot 15.632 1.1373
ltoes -8.81957
983
root 2.90846 19.9485 0.0428344 11.2345 -8.62372 -7.8189
lowerback 4.82208 -0.479359 3.21548
upperback -3.14199 -0.292545 2.06203
thorax -5.98458 -0.231938 0.372378
lowerneck -12.646 0.674303 -2.19702
upperneck 35.2835 1.2211 0.797391
head 14.1414 0.287462 0.887531
rclavicle -3.79679e-014 1.82882e-014
rhumerus -48.0647 5.74633 -79.4357
rradius 68.5994
rwrist 5.24017
rhand -24.0184 -46.3847
rfingers 7.12502
rthumb 2.45955 -796.35
lclavicle -3.79679e-014 1.82882e-014
lhumerus -42.0782 -26.1156 78.8518
lradius 45.2655
lwrist -4.09504
lhand -24.416 -34.9703
lfingers 7.12502
lthumb 2.07563 -5.00069
rfemur -100.918 -4.09346 26.9876
rtibia 143.007
rfoot 30.2086 14.6418
rtoes -7.78796
lfemur -13.3735 -2.69929 -17.1766
ltibia 13.2103
lfoot 15.0617 2.04952
ltoes -14.0294
984
root 2.91636 19.8864 0.0447423 11.0328 -9.22732 -7.92775
lowerback 5.01592 -0.351195 3.2449
upperback -3.21433 -0.107169 2.05279
thorax -6.16928 -0.144151 0.330214
lowerneck -12.6269 0.719724 -1.97064
upperneck 35.4218 1.31075 0.54988
head 14.2034 0.319834 0.761696
rclavicle 3.23025e-015 -3.61788e-014
rhumerus -48.2333 5.96419 -79.5009
rradius 67.9454
rwrist 5.38289
rhand -23.7149 -50.3979
rfingers 7.12502
rthumb 2.75269 -800.36
lclavicle 3.23025e-015 -3.61788e-014
lhumerus -42.4945 -25.4908 79.0267
lradius 44.8046
lwrist -4.19902
lhand -24.1728 -35.0526
lfingers 7.12502
lthumb 2.31051 -5.08537
rfemur -100.631 -2.40612 27.0028
rtibia 142.753
rfoot 29.5998 14.5449
rtoes -7.70465
lfemur -12.7386 -2.12382 -17.3165
ltibia 12.8884
lfoot 16.213 2.24743
ltoes -10.8749
985
root 2.92838 19.8193 0.0448584 10.867 -9.62947 -7.85656
lowerback 5.11395 -0.274942 3.20618
upperback -3.28992 -0.0037023 1.99817
thorax -6.30346 -0.0945982 0.285703
lowerneck -12.7128 0.689462 -1.94663
upperneck 35.6189 1.27715 0.502142
head 14.3151 0.298217 0.734864
rclavicle 6.93262e-015 -3.22031e-014
rhumerus -48.3133 6.18723 -79.5709
rradius 67.2948
rwrist 5.42494
rhand -23.883 -48.7938
rfingers 7.12502
rthumb 2.59034 -798.758
lclavicle 6.93262e-015 -3.22031e-014
lhumerus -42.775 -24.8025 79.1112
lradius 44.4015
lwrist -4.43948
lhand -23.9603 -34.6834
lfingers 7.12502
lthumb 2.51575 -4.71845
rfemur -100.646 -1.09259 26.8753
rtibia 142.266
rfoot 29.6139 13.739
rtoes -5.45522
lfemur -12.2237 -1.70383 -17.6214
ltibia 12.525
lfoot 16.8331 2.19234
ltoes -11.9171
986
root 2.94114 19.7492 0.0478777 10.7475 -10.1085 -7.58459
lowerback 5.14755 -0.197711 2.95122
upperback -3.45861 0.0817838 1.91344
thorax -6.49886 -0.0463289 0.332839
lowerneck -12.5392 0.700599 -1.92514
upperneck 35.662 1.32386 0.381242
head 14.2966 0.303318 0.687698
rclavicle -4.29126e-014 1.86858e-014
rhumerus -48.4049 6.43781 -79.5862
rradius 66.5452
rwrist 5.68569
rhand -23.6377 -44.707
rfingers 7.12502
rthumb 2.82729 -794.668
lclavicle -4.29126e-014 1.86858e-014
lhumerus -43.2704 -24.0641 79.266
lradius 44.0783
lwrist -4.83206
lhand -24.3709 -34.7106
lfingers 7.12502
lthumb 2.11913 -4.74139
rfemur -101.234 0.364101 26.5474
rtibia 141.426
rfoot 30.4275 12.3223
rtoes -2.70499
lfemur -11.8265 -1.26015 -18.159
ltibia 12.2065
lfoot 17.7444 2.03641
ltoes -11.6377
